<?xml version="1.0" standalone="no"?>
<!DOCTYPE svg PUBLIC "-//W3C//DTD SVG 20010904//EN"
 "http://www.w3.org/TR/2001/REC-SVG-20010904/DTD/svg10.dtd">
<svg version="1.0" xmlns="http://www.w3.org/2000/svg"
 width="440.000000pt" height="439.000000pt" viewBox="0 0 440.000000 439.000000"
 preserveAspectRatio="xMidYMid meet">

<g transform="translate(0.000000,439.000000) scale(0.100000,-0.100000)"
fill="#000000" stroke="none">
<path d="M1932 4039 c-109 -21 -234 -111 -283 -203 -21 -41 -24 -43 -51 -34
-15 6 -68 8 -116 6 -78 -3 -97 -7 -164 -41 -91 -44 -146 -102 -192 -197 -29
-61 -31 -72 -31 -176 l0 -112 -48 -6 c-143 -16 -279 -139 -322 -290 -35 -119
-5 -276 69 -363 l27 -32 -45 -30 c-55 -38 -98 -92 -134 -168 -24 -52 -27 -70
-27 -163 0 -97 2 -110 32 -172 40 -85 97 -147 173 -187 l59 -32 -40 -40 c-91
-91 -139 -208 -139 -338 0 -141 52 -264 150 -355 37 -34 62 -66 70 -92 22 -67
57 -128 95 -164 33 -32 41 -35 100 -35 49 0 68 4 85 20 17 14 24 16 27 7 3 -7
35 -52 73 -100 158 -205 392 -369 636 -445 156 -49 238 -62 409 -61 173 0 272
14 412 60 486 158 852 598 911 1094 l8 65 14 -58 c15 -63 28 -81 55 -71 14 6
16 15 12 56 -8 66 -28 103 -53 102 -20 0 -22 7 -29 135 -11 183 -10 203 4 301
10 62 18 89 33 100 16 13 19 26 16 75 l-3 60 -45 6 c-25 4 -71 10 -102 13 -62
8 -71 16 -36 31 13 6 27 22 32 37 8 23 6 33 -11 56 l-21 29 30 54 c48 82 104
224 144 361 33 110 37 136 38 243 1 121 1 121 -37 199 -48 95 -124 174 -204
211 -54 25 -60 32 -90 95 -76 159 -233 251 -404 237 -63 -5 -67 -4 -77 19 -18
37 -88 110 -140 143 -122 77 -303 81 -420 9 l-33 -20 -54 51 c-102 96 -233
136 -363 110z m1290 -1646 c26 -26 48 -50 48 -54 0 -3 -24 -9 -54 -13 -66 -7
-173 -40 -203 -61 -29 -21 -30 -59 -1 -79 12 -9 43 -16 68 -17 l45 -1 -65 -19
c-85 -25 -204 -25 -290 1 l-65 19 45 0 c55 1 92 24 88 54 -4 31 -56 61 -150
88 -70 20 -106 24 -230 24 -133 0 -149 -2 -175 -21 -53 -40 -37 -104 31 -123
27 -7 21 -9 -44 -15 -41 -5 -196 -28 -345 -52 -148 -25 -276 -43 -283 -42 -10
2 -2 22 30 68 124 183 333 247 718 220 133 -9 206 -9 305 -1 122 11 435 58
444 67 13 13 41 -1 83 -43z m-667 -263 c114 -14 191 -47 201 -87 4 -15 2 -56
-3 -90 -35 -205 -189 -312 -371 -258 -107 32 -155 108 -156 245 0 131 29 169
146 189 74 12 82 12 183 1z m888 -69 c41 -89 84 -230 89 -287 3 -36 0 -40 -42
-63 -38 -21 -58 -26 -125 -26 -70 0 -87 4 -133 29 -86 48 -144 147 -158 272
-6 48 -4 58 16 79 40 42 140 69 281 74 36 1 37 0 72 -78z m157 -26 c0 -5 -5
-3 -10 5 -5 8 -10 20 -10 25 0 6 5 3 10 -5 5 -8 10 -19 10 -25z m-1464 -26 c3
-6 10 -42 14 -79 12 -112 38 -179 90 -231 57 -57 112 -74 240 -74 77 1 105 5
145 23 90 41 170 139 225 275 13 31 32 65 42 74 27 24 63 4 78 -44 45 -141
154 -276 250 -309 71 -25 237 -26 293 -1 l37 16 -1 -127 c0 -118 -4 -129 -23
-69 -8 24 -35 33 -51 16 -12 -12 -12 -23 1 -74 8 -33 24 -67 34 -76 19 -17 19
-18 -4 -95 -26 -92 -78 -216 -105 -258 l-20 -30 -7 30 c-11 47 -32 74 -60 74
-13 0 -27 -7 -31 -16 -7 -19 12 -109 32 -147 13 -25 12 -29 -12 -59 -41 -51
-154 -166 -196 -200 -30 -24 -40 -28 -52 -18 -28 23 -80 -18 -60 -49 3 -6 -6
-18 -20 -27 -24 -16 -27 -16 -45 1 -17 15 -24 16 -46 6 -22 -10 -25 -16 -21
-40 5 -23 2 -29 -21 -37 -21 -7 -30 -5 -49 14 -22 22 -26 23 -46 9 -14 -10
-21 -24 -20 -40 1 -20 -5 -28 -25 -35 -24 -8 -29 -6 -42 22 -27 55 -80 42 -80
-19 0 -25 -5 -34 -22 -39 -43 -11 -48 -7 -48 34 0 34 -4 41 -25 46 -34 8 -52
-9 -60 -57 -6 -37 -9 -39 -41 -39 -34 0 -35 1 -29 33 8 39 -11 60 -47 55 -17
-2 -26 -14 -36 -43 -7 -21 -14 -41 -16 -43 -2 -2 -20 0 -39 3 -34 7 -34 7 -24
40 13 42 -4 67 -42 63 -19 -2 -29 -12 -41 -43 l-15 -40 -42 9 -42 9 22 38 c17
30 20 42 11 56 -21 35 -51 27 -85 -20 l-31 -45 -41 16 -40 16 52 46 c55 49 65
82 30 100 -16 9 -26 8 -44 -4 -45 -30 -95 -78 -95 -92 0 -23 -14 -17 -107 45
-106 71 -204 159 -274 247 -62 78 -149 220 -149 244 0 9 -7 39 -15 66 -26 90
-78 119 -124 70 -17 -18 -22 -32 -17 -50 8 -34 -9 -34 -80 1 -72 35 -146 116
-175 191 -34 89 -31 190 8 274 59 127 173 204 315 215 l74 6 98 -234 c54 -129
101 -238 106 -242 4 -5 17 -6 28 -3 18 6 20 19 27 149 3 78 11 180 16 227 12
102 47 240 63 246 15 6 448 51 503 53 23 0 45 -4 49 -10z m-943 -873 c21 -44
40 -151 32 -179 -16 -56 -30 -79 -56 -92 -45 -24 -84 -19 -123 16 -32 28 -93
135 -83 145 11 11 39 -12 62 -52 31 -53 73 -78 109 -64 49 18 58 72 30 171
-24 85 -4 123 29 55z m-69 -162 c9 -3 13 -10 10 -15 -8 -14 -40 -11 -54 6 -10
12 -9 15 8 15 11 0 27 -3 36 -6z"/>
<path d="M2500 2082 c-40 -40 -49 -105 -22 -165 25 -56 53 -73 92 -57 77 32
80 204 4 239 -36 16 -42 14 -74 -17z"/>
<path d="M3230 2082 c-54 -54 -47 -171 12 -215 23 -17 31 -18 57 -8 78 33 82
205 5 240 -36 16 -42 14 -74 -17z"/>
<path d="M2871 1701 c-8 -15 2 -43 52 -140 l62 -121 5 -121 c4 -102 8 -124 23
-133 48 -30 73 59 57 207 -8 79 -50 184 -114 285 -29 47 -67 57 -85 23z"/>
<path d="M1061 1583 c-13 -11 -23 -30 -23 -44 0 -39 43 -192 60 -211 15 -18
58 -24 78 -10 33 21 33 48 5 152 -16 56 -33 106 -37 110 -21 20 -61 21 -83 3z"/>
<path d="M2113 1478 c-12 -15 -33 -97 -33 -126 0 -25 29 -37 46 -20 21 21 45
130 32 145 -13 16 -33 17 -45 1z"/>
<path d="M2217 1483 c-3 -5 -13 -37 -22 -72 -14 -57 -15 -66 -1 -79 8 -8 21
-12 30 -9 17 7 38 74 40 127 1 29 -3 36 -21 38 -11 2 -23 -1 -26 -5z"/>
<path d="M2322 1478 c-5 -7 -16 -39 -23 -71 -11 -50 -10 -60 3 -73 25 -26 45
-6 62 63 13 50 14 68 5 79 -14 17 -33 18 -47 2z"/>
<path d="M1472 1288 c-18 -18 -14 -56 7 -68 11 -5 36 -10 56 -10 20 0 45 5 56
10 21 12 25 50 7 68 -16 16 -110 16 -126 0z"/>
<path d="M1551 1136 c-24 -6 -50 -21 -58 -33 -13 -19 -12 -24 5 -41 18 -18 26
-19 69 -10 58 12 73 23 73 54 0 19 -28 47 -42 43 -2 -1 -23 -6 -47 -13z"/>
<path d="M2880 1105 c-7 -8 -15 -53 -17 -99 l-6 -85 27 -7 c18 -4 33 -2 42 8
20 19 31 163 14 183 -16 19 -44 19 -60 0z"/>
<path d="M3010 1105 c-15 -18 -14 -132 0 -171 11 -27 50 -33 70 -10 19 24 2
174 -21 186 -25 14 -34 12 -49 -5z"/>
<path d="M2748 1098 c-22 -17 -43 -165 -27 -184 16 -20 57 -17 68 4 17 32 25
160 11 177 -15 18 -31 19 -52 3z"/>
<path d="M3141 1082 c-6 -12 -6 -45 1 -96 10 -66 15 -80 34 -88 18 -8 28 -8
40 3 14 11 16 26 10 87 -3 40 -11 82 -16 92 -13 25 -56 26 -69 2z"/>
<path d="M2598 1063 c-8 -10 -23 -40 -31 -67 -19 -56 -10 -86 27 -86 30 0 40
13 62 82 14 47 15 60 4 72 -17 21 -43 20 -62 -1z"/>
<path d="M2449 1060 c-8 -5 -24 -36 -34 -69 -21 -69 -11 -94 33 -89 21 2 29
14 48 64 21 55 21 63 8 83 -16 23 -30 26 -55 11z"/>
<path d="M2273 983 c-22 -53 -23 -112 0 -127 28 -18 50 5 70 73 21 69 14 91
-30 91 -18 0 -28 -9 -40 -37z"/>
<path d="M1570 988 c-44 -12 -60 -26 -60 -48 0 -36 26 -45 93 -31 74 15 89 26
85 60 -3 23 -8 26 -43 28 -22 1 -56 -3 -75 -9z"/>
<path d="M2158 943 c-18 -4 -39 -63 -53 -144 -10 -54 34 -91 65 -55 13 17 39
118 40 158 0 29 -23 47 -52 41z"/>
<path d="M1620 837 c-48 -20 -55 -27 -55 -52 0 -45 23 -51 95 -24 70 27 91 49
74 77 -16 25 -52 25 -114 -1z"/>
<path d="M2524 797 c-14 -39 0 -60 56 -80 80 -30 300 -30 380 0 52 19 55 22
55 54 0 32 -2 34 -35 33 -19 0 -62 -8 -95 -17 -74 -21 -154 -22 -225 -2 -95
27 -129 30 -136 12z"/>
<path d="M1728 692 c-65 -42 -78 -64 -52 -93 23 -26 31 -25 94 18 75 50 85 67
54 97 -22 23 -32 20 -96 -22z"/>
</g>
</svg>
